<?xml version="1.0" encoding="UTF-8" standalone="no"?><svg xmlns="http://www.w3.org/2000/svg" xmlns:xlink="http://www.w3.org/1999/xlink" contentScriptType="application/ecmascript" contentStyleType="text/css" height="953px" preserveAspectRatio="none" style="width:585px;height:953px;" version="1.1" viewBox="0 0 585 953" width="585px" zoomAndPan="magnify"><defs><filter height="300%" id="fqnaad0pako7c" width="300%" x="-1" y="-1"><feGaussianBlur result="blurOut" stdDeviation="2.0"/><feColorMatrix in="blurOut" result="blurOut2" type="matrix" values="0 0 0 0 0 0 0 0 0 0 0 0 0 0 0 0 0 0 .4 0"/><feOffset dx="4.0" dy="4.0" in="blurOut2" result="blurOut3"/><feBlend in="SourceGraphic" in2="blurOut3" mode="normal"/></filter></defs><g><ellipse cx="164" cy="20" fill="#000000" filter="url(#fqnaad0pako7c)" rx="10" ry="10" style="stroke: none; stroke-width: 1.0;"/><path d="M266,54.4 L266,63.2001 L246,67.2001 L266,71.2001 L266,80.0001 A0,0 0 0 0 266,80.0001 L573,80.0001 A0,0 0 0 0 573,80.0001 L573,64.4 L563,54.4 L266,54.4 A0,0 0 0 0 266,54.4 " fill="#FBFB77" filter="url(#fqnaad0pako7c)" style="stroke: #A80036; stroke-width: 1.0;"/><path d="M563,54.4 L563,64.4 L573,64.4 L563,54.4 " fill="#FBFB77" style="stroke: #A80036; stroke-width: 1.0;"/><text fill="#000000" font-family="sans-serif" font-size="13" lengthAdjust="spacingAndGlyphs" textLength="286" x="272" y="71.4771">東京で良いイタリアンレストランを探しています</text><rect fill="#FEFECE" filter="url(#fqnaad0pako7c)" height="34.4001" rx="12.5" ry="12.5" style="stroke: #A80036; stroke-width: 1.5;" width="164" x="82" y="50"/><text fill="#000000" font-family="sans-serif" font-size="12" lengthAdjust="spacingAndGlyphs" textLength="144" x="92" y="71.1481">ユーザーが初期要求を入力</text><rect fill="#FEFECE" filter="url(#fqnaad0pako7c)" height="34.4001" rx="12.5" ry="12.5" style="stroke: #A80036; stroke-width: 1.5;" width="151" x="88.5" y="104.4001"/><text fill="#000000" font-family="sans-serif" font-size="12" lengthAdjust="spacingAndGlyphs" textLength="131" x="98.5" y="125.5482">root_agentが要求を分析</text><path d="M277.5,163.2002 L277.5,172.0003 L257.5,176.0003 L277.5,180.0003 L277.5,188.8003 A0,0 0 0 0 277.5,188.8003 L454.5,188.8003 A0,0 0 0 0 454.5,188.8003 L454.5,173.2002 L444.5,163.2002 L277.5,163.2002 A0,0 0 0 0 277.5,163.2002 " fill="#FBFB77" filter="url(#fqnaad0pako7c)" style="stroke: #A80036; stroke-width: 1.0;"/><path d="M444.5,163.2002 L444.5,173.2002 L454.5,173.2002 L444.5,163.2002 " fill="#FBFB77" style="stroke: #A80036; stroke-width: 1.0;"/><text fill="#000000" font-family="sans-serif" font-size="13" lengthAdjust="spacingAndGlyphs" textLength="156" x="283.5" y="180.2773">レストラン検索のフェーズ</text><rect fill="#FEFECE" filter="url(#fqnaad0pako7c)" height="34.4001" rx="12.5" ry="12.5" style="stroke: #A80036; stroke-width: 1.5;" width="187" x="70.5" y="158.8002"/><text fill="#000000" font-family="sans-serif" font-size="12" lengthAdjust="spacingAndGlyphs" textLength="167" x="80.5" y="179.9483">inspiration_agentに処理を委譲</text><rect fill="#FEFECE" filter="url(#fqnaad0pako7c)" height="34.4001" rx="12.5" ry="12.5" style="stroke: #A80036; stroke-width: 1.5;" width="308" x="10" y="213.2003"/><text fill="#000000" font-family="sans-serif" font-size="12" lengthAdjust="spacingAndGlyphs" textLength="288" x="20" y="234.3484">エリアや料理タイプに基づいてレストラン候補を提案</text><path d="M272,272.0004 L272,280.8005 L252,284.8005 L272,288.8005 L272,297.6005 A0,0 0 0 0 272,297.6005 L425,297.6005 A0,0 0 0 0 425,297.6005 L425,282.0004 L415,272.0004 L272,272.0004 A0,0 0 0 0 272,272.0004 " fill="#FBFB77" filter="url(#fqnaad0pako7c)" style="stroke: #A80036; stroke-width: 1.0;"/><path d="M415,272.0004 L415,282.0004 L425,282.0004 L415,272.0004 " fill="#FBFB77" style="stroke: #A80036; stroke-width: 1.0;"/><text fill="#000000" font-family="sans-serif" font-size="13" lengthAdjust="spacingAndGlyphs" textLength="132" x="278" y="289.0775">La Vitaが良さそうです</text><rect fill="#FEFECE" filter="url(#fqnaad0pako7c)" height="34.4001" rx="12.5" ry="12.5" style="stroke: #A80036; stroke-width: 1.5;" width="176" x="76" y="267.6004"/><text fill="#000000" font-family="sans-serif" font-size="12" lengthAdjust="spacingAndGlyphs" textLength="156" x="86" y="288.7485">ユーザーがレストランを選択</text><path d="M273,326.4005 L273,335.2006 L253,339.2006 L273,343.2006 L273,352.0006 A0,0 0 0 0 273,352.0006 L411,352.0006 A0,0 0 0 0 411,352.0006 L411,336.4005 L401,326.4005 L273,326.4005 A0,0 0 0 0 273,326.4005 " fill="#FBFB77" filter="url(#fqnaad0pako7c)" style="stroke: #A80036; stroke-width: 1.0;"/><path d="M401,326.4005 L401,336.4005 L411,336.4005 L401,326.4005 " fill="#FBFB77" style="stroke: #A80036; stroke-width: 1.0;"/><text fill="#000000" font-family="sans-serif" font-size="13" lengthAdjust="spacingAndGlyphs" textLength="117" x="279" y="343.4776">予約計画のフェーズ</text><rect fill="#FEFECE" filter="url(#fqnaad0pako7c)" height="34.4001" rx="12.5" ry="12.5" style="stroke: #A80036; stroke-width: 1.5;" width="178" x="75" y="322.0005"/><text fill="#000000" font-family="sans-serif" font-size="12" lengthAdjust="spacingAndGlyphs" textLength="158" x="85" y="343.1486">planning_agentに処理を委譲</text><path d="M242,380.8006 L242,389.6007 L222,393.6007 L242,397.6007 L242,406.4007 A0,0 0 0 0 242,406.4007 L401,406.4007 A0,0 0 0 0 401,406.4007 L401,390.8006 L391,380.8006 L242,380.8006 A0,0 0 0 0 242,380.8006 " fill="#FBFB77" filter="url(#fqnaad0pako7c)" style="stroke: #A80036; stroke-width: 1.0;"/><path d="M391,380.8006 L391,390.8006 L401,390.8006 L391,380.8006 " fill="#FBFB77" style="stroke: #A80036; stroke-width: 1.0;"/><text fill="#000000" font-family="sans-serif" font-size="13" lengthAdjust="spacingAndGlyphs" textLength="138" x="248" y="397.8777">明日の夜19時頃、2名で</text><rect fill="#FEFECE" filter="url(#fqnaad0pako7c)" height="34.4001" rx="12.5" ry="12.5" style="stroke: #A80036; stroke-width: 1.5;" width="116" x="106" y="376.4006"/><text fill="#000000" font-family="sans-serif" font-size="12" lengthAdjust="spacingAndGlyphs" textLength="96" x="116" y="397.5487">日時・人数の確認</text><rect fill="#FEFECE" filter="url(#fqnaad0pako7c)" height="34.4001" rx="12.5" ry="12.5" style="stroke: #A80036; stroke-width: 1.5;" width="104" x="112" y="430.8007"/><text fill="#000000" font-family="sans-serif" font-size="12" lengthAdjust="spacingAndGlyphs" textLength="84" x="122" y="451.9488">空席状況の確認</text><rect fill="#FEFECE" filter="url(#fqnaad0pako7c)" height="34.4001" rx="12.5" ry="12.5" style="stroke: #A80036; stroke-width: 1.5;" width="116" x="106" y="485.2008"/><text fill="#000000" font-family="sans-serif" font-size="12" lengthAdjust="spacingAndGlyphs" textLength="96" x="116" y="506.3489">コース選択の案内</text><path d="M260,544.0009 L260,552.801 L240,556.801 L260,560.801 L260,569.601 A0,0 0 0 0 260,569.601 L489,569.601 A0,0 0 0 0 489,569.601 L489,554.0009 L479,544.0009 L260,544.0009 A0,0 0 0 0 260,544.0009 " fill="#FBFB77" filter="url(#fqnaad0pako7c)" style="stroke: #A80036; stroke-width: 1.0;"/><path d="M479,544.0009 L479,554.0009 L489,554.0009 L479,544.0009 " fill="#FBFB77" style="stroke: #A80036; stroke-width: 1.0;"/><text fill="#000000" font-family="sans-serif" font-size="13" lengthAdjust="spacingAndGlyphs" textLength="208" x="266" y="561.078">トラットリアコースでお願いします</text><rect fill="#FEFECE" filter="url(#fqnaad0pako7c)" height="34.4001" rx="12.5" ry="12.5" style="stroke: #A80036; stroke-width: 1.5;" width="152" x="88" y="539.6009"/><text fill="#000000" font-family="sans-serif" font-size="12" lengthAdjust="spacingAndGlyphs" textLength="132" x="98" y="560.749">ユーザーがコースを選択</text><path d="M271,598.4011 L271,607.2011 L251,611.2011 L271,615.2011 L271,624.0011 A0,0 0 0 0 271,624.0011 L409,624.0011 A0,0 0 0 0 409,624.0011 L409,608.4011 L399,598.4011 L271,598.4011 A0,0 0 0 0 271,598.4011 " fill="#FBFB77" filter="url(#fqnaad0pako7c)" style="stroke: #A80036; stroke-width: 1.0;"/><path d="M399,598.4011 L399,608.4011 L409,608.4011 L399,598.4011 " fill="#FBFB77" style="stroke: #A80036; stroke-width: 1.0;"/><text fill="#000000" font-family="sans-serif" font-size="13" lengthAdjust="spacingAndGlyphs" textLength="117" x="277" y="615.4781">予約確定のフェーズ</text><rect fill="#FEFECE" filter="url(#fqnaad0pako7c)" height="34.4001" rx="12.5" ry="12.5" style="stroke: #A80036; stroke-width: 1.5;" width="174" x="77" y="594.001"/><text fill="#000000" font-family="sans-serif" font-size="12" lengthAdjust="spacingAndGlyphs" textLength="154" x="87" y="615.1491">booking_agentに処理を委譲</text><rect fill="#FEFECE" filter="url(#fqnaad0pako7c)" height="34.4001" rx="12.5" ry="12.5" style="stroke: #A80036; stroke-width: 1.5;" width="116" x="106" y="648.4011"/><text fill="#000000" font-family="sans-serif" font-size="12" lengthAdjust="spacingAndGlyphs" textLength="96" x="116" y="669.5492">予約の作成・確認</text><rect fill="#FEFECE" filter="url(#fqnaad0pako7c)" height="34.4001" rx="12.5" ry="12.5" style="stroke: #A80036; stroke-width: 1.5;" width="116" x="106" y="702.8012"/><text fill="#000000" font-family="sans-serif" font-size="12" lengthAdjust="spacingAndGlyphs" textLength="96" x="116" y="723.9493">支払い方法の選択</text><path d="M272,761.6014 L272,770.4014 L252,774.4014 L272,778.4014 L272,787.2014 A0,0 0 0 0 272,787.2014 L475,787.2014 A0,0 0 0 0 475,787.2014 L475,771.6014 L465,761.6014 L272,761.6014 A0,0 0 0 0 272,761.6014 " fill="#FBFB77" filter="url(#fqnaad0pako7c)" style="stroke: #A80036; stroke-width: 1.0;"/><path d="M465,761.6014 L465,771.6014 L475,771.6014 L465,761.6014 " fill="#FBFB77" style="stroke: #A80036; stroke-width: 1.0;"/><text fill="#000000" font-family="sans-serif" font-size="13" lengthAdjust="spacingAndGlyphs" textLength="182" x="278" y="778.6784">クレジットカードで支払います</text><rect fill="#FEFECE" filter="url(#fqnaad0pako7c)" height="34.4001" rx="12.5" ry="12.5" style="stroke: #A80036; stroke-width: 1.5;" width="176" x="76" y="757.2013"/><text fill="#000000" font-family="sans-serif" font-size="12" lengthAdjust="spacingAndGlyphs" textLength="156" x="86" y="778.3494">ユーザーが支払い方法を選択</text><rect fill="#FEFECE" filter="url(#fqnaad0pako7c)" height="34.4001" rx="12.5" ry="12.5" style="stroke: #A80036; stroke-width: 1.5;" width="104" x="112" y="811.6014"/><text fill="#000000" font-family="sans-serif" font-size="12" lengthAdjust="spacingAndGlyphs" textLength="84" x="122" y="832.7495">決済処理の実行</text><rect fill="#FEFECE" filter="url(#fqnaad0pako7c)" height="34.4001" rx="12.5" ry="12.5" style="stroke: #A80036; stroke-width: 1.5;" width="104" x="112" y="866.0015"/><text fill="#000000" font-family="sans-serif" font-size="12" lengthAdjust="spacingAndGlyphs" textLength="84" x="122" y="887.1496">予約完了の通知</text><ellipse cx="164" cy="931.4016" fill="#FFFFFF" filter="url(#fqnaad0pako7c)" rx="11" ry="11" style="stroke: #000000; stroke-width: 1.0;"/><ellipse cx="164" cy="931.4016" fill="#000000" rx="6" ry="6" style="stroke: #7F7F7F; stroke-width: 1.0;"/><line style="stroke: #A80036; stroke-width: 1.5;" x1="164" x2="164" y1="30" y2="50"/><polygon fill="#A80036" points="160,40,164,50,168,40,164,44" style="stroke: #A80036; stroke-width: 1.0;"/><line style="stroke: #A80036; stroke-width: 1.5;" x1="164" x2="164" y1="84.4001" y2="104.4001"/><polygon fill="#A80036" points="160,94.4001,164,104.4001,168,94.4001,164,98.4001" style="stroke: #A80036; stroke-width: 1.0;"/><line style="stroke: #A80036; stroke-width: 1.5;" x1="164" x2="164" y1="138.8002" y2="158.8002"/><polygon fill="#A80036" points="160,148.8002,164,158.8002,168,148.8002,164,152.8002" style="stroke: #A80036; stroke-width: 1.0;"/><line style="stroke: #A80036; stroke-width: 1.5;" x1="164" x2="164" y1="193.2003" y2="213.2003"/><polygon fill="#A80036" points="160,203.2003,164,213.2003,168,203.2003,164,207.2003" style="stroke: #A80036; stroke-width: 1.0;"/><line style="stroke: #A80036; stroke-width: 1.5;" x1="164" x2="164" y1="247.6004" y2="267.6004"/><polygon fill="#A80036" points="160,257.6004,164,267.6004,168,257.6004,164,261.6004" style="stroke: #A80036; stroke-width: 1.0;"/><line style="stroke: #A80036; stroke-width: 1.5;" x1="164" x2="164" y1="302.0005" y2="322.0005"/><polygon fill="#A80036" points="160,312.0005,164,322.0005,168,312.0005,164,316.0005" style="stroke: #A80036; stroke-width: 1.0;"/><line style="stroke: #A80036; stroke-width: 1.5;" x1="164" x2="164" y1="356.4006" y2="376.4006"/><polygon fill="#A80036" points="160,366.4006,164,376.4006,168,366.4006,164,370.4006" style="stroke: #A80036; stroke-width: 1.0;"/><line style="stroke: #A80036; stroke-width: 1.5;" x1="164" x2="164" y1="410.8007" y2="430.8007"/><polygon fill="#A80036" points="160,420.8007,164,430.8007,168,420.8007,164,424.8007" style="stroke: #A80036; stroke-width: 1.0;"/><line style="stroke: #A80036; stroke-width: 1.5;" x1="164" x2="164" y1="465.2008" y2="485.2008"/><polygon fill="#A80036" points="160,475.2008,164,485.2008,168,475.2008,164,479.2008" style="stroke: #A80036; stroke-width: 1.0;"/><line style="stroke: #A80036; stroke-width: 1.5;" x1="164" x2="164" y1="519.6009" y2="539.6009"/><polygon fill="#A80036" points="160,529.6009,164,539.6009,168,529.6009,164,533.6009" style="stroke: #A80036; stroke-width: 1.0;"/><line style="stroke: #A80036; stroke-width: 1.5;" x1="164" x2="164" y1="574.001" y2="594.001"/><polygon fill="#A80036" points="160,584.001,164,594.001,168,584.001,164,588.001" style="stroke: #A80036; stroke-width: 1.0;"/><line style="stroke: #A80036; stroke-width: 1.5;" x1="164" x2="164" y1="628.4011" y2="648.4011"/><polygon fill="#A80036" points="160,638.4011,164,648.4011,168,638.4011,164,642.4011" style="stroke: #A80036; stroke-width: 1.0;"/><line style="stroke: #A80036; stroke-width: 1.5;" x1="164" x2="164" y1="682.8012" y2="702.8012"/><polygon fill="#A80036" points="160,692.8012,164,702.8012,168,692.8012,164,696.8012" style="stroke: #A80036; stroke-width: 1.0;"/><line style="stroke: #A80036; stroke-width: 1.5;" x1="164" x2="164" y1="737.2013" y2="757.2013"/><polygon fill="#A80036" points="160,747.2013,164,757.2013,168,747.2013,164,751.2013" style="stroke: #A80036; stroke-width: 1.0;"/><line style="stroke: #A80036; stroke-width: 1.5;" x1="164" x2="164" y1="791.6014" y2="811.6014"/><polygon fill="#A80036" points="160,801.6014,164,811.6014,168,801.6014,164,805.6014" style="stroke: #A80036; stroke-width: 1.0;"/><line style="stroke: #A80036; stroke-width: 1.5;" x1="164" x2="164" y1="846.0015" y2="866.0015"/><polygon fill="#A80036" points="160,856.0015,164,866.0015,168,856.0015,164,860.0015" style="stroke: #A80036; stroke-width: 1.0;"/><line style="stroke: #A80036; stroke-width: 1.5;" x1="164" x2="164" y1="900.4016" y2="920.4016"/><polygon fill="#A80036" points="160,910.4016,164,920.4016,168,910.4016,164,914.4016" style="stroke: #A80036; stroke-width: 1.0;"/><!--MD5=[a1e947b2cc706b046a95db796febe796]
@startuml
skinparam backgroundColor white

start
:ユーザーが初期要求を入力;
note right: 東京で良いイタリアンレストランを探しています

:root_agentが要求を分析;

:inspiration_agentに処理を委譲;
note right: レストラン検索のフェーズ

:エリアや料理タイプに基づいてレストラン候補を提案;

:ユーザーがレストランを選択;
note right: La Vitaが良さそうです

:planning_agentに処理を委譲;
note right: 予約計画のフェーズ

:日時・人数の確認;
note right: 明日の夜19時頃、2名で

:空席状況の確認;

:コース選択の案内;

:ユーザーがコースを選択;
note right: トラットリアコースでお願いします

:booking_agentに処理を委譲;
note right: 予約確定のフェーズ

:予約の作成・確認;

:支払い方法の選択;

:ユーザーが支払い方法を選択;
note right: クレジットカードで支払います

:決済処理の実行;

:予約完了の通知;

stop
@enduml

PlantUML version 1.2020.02(Sun Mar 01 10:22:07 UTC 2020)
(GPL source distribution)
Java Runtime: OpenJDK Runtime Environment
JVM: OpenJDK 64-Bit Server VM
Java Version: 17.0.11+9-Debian-1deb12u1
Operating System: Linux
Default Encoding: UTF-8
Language: en
Country: US
--></g></svg>